<svg xmlns="http://www.w3.org/2000/svg" width="256" height="256" viewBox="0 0 256 256">
  <rect width="256" height="256" rx="56" fill="#1f1f1f"/>
  <rect x="44" y="50" width="168" height="156" rx="14" fill="#2a2a2a"/>
  <rect x="64" y="72" width="104" height="12" rx="6" fill="#5a5a5a"/>
  <rect x="44" y="100" width="168" height="34" fill="#f14c4c" fill-opacity="0.22"/>
  <rect x="44" y="100" width="8" height="34" fill="#f14c4c"/>
  <rect x="62" y="114" width="22" height="6" rx="3" fill="#f14c4c"/>
  <rect x="94" y="111" width="96" height="12" rx="6" fill="#f14c4c" fill-opacity="0.85"/>
  <rect x="44" y="134" width="168" height="34" fill="#3fb950" fill-opacity="0.22"/>
  <rect x="44" y="134" width="8" height="34" fill="#3fb950"/>
  <rect x="62" y="148" width="22" height="6" rx="3" fill="#3fb950"/>
  <rect x="70" y="140" width="6" height="22" rx="3" fill="#3fb950"/>
  <rect x="94" y="145" width="80" height="12" rx="6" fill="#3fb950" fill-opacity="0.85"/>
  <rect x="64" y="182" width="72" height="12" rx="6" fill="#5a5a5a"/>
</svg>
